<svg id="svg" version="1.1" xmlns="http://www.w3.org/2000/svg" xmlns:xlink="http://www.w3.org/1999/xlink" width="400" height="400" viewBox="0, 0, 400,400"><g id="svgg"><path id="path0" d="M182.230 108.500 C 182.129 108.995,181.946 111.380,181.824 113.800 C 181.455 121.135,180.375 128.313,178.830 133.700 C 178.594 134.525,178.235 135.785,178.033 136.500 C 176.505 141.916,171.880 152.398,169.615 155.579 C 169.167 156.208,168.800 156.823,168.800 156.944 C 168.800 157.622,162.720 165.702,159.537 169.253 C 158.031 170.932,156.800 172.461,156.800 172.650 C 156.800 172.839,160.019 176.145,163.952 179.997 C 173.370 189.218,174.139 190.646,171.816 194.608 C 169.767 198.105,173.884 197.820,127.987 197.645 C 105.650 197.560,86.975 197.617,86.487 197.772 L 85.600 198.054 85.600 226.578 C 85.600 249.947,85.697 255.183,86.137 255.547 C 86.527 255.871,115.899 256.021,194.037 256.096 L 301.400 256.200 303.018 257.066 C 304.851 258.048,306.210 259.487,311.600 266.160 C 313.690 268.747,316.840 272.623,318.600 274.773 C 320.360 276.924,322.790 279.907,324.000 281.403 C 325.210 282.899,326.830 284.884,327.600 285.815 C 328.370 286.746,330.350 289.185,332.000 291.237 C 333.650 293.288,335.905 296.054,337.011 297.383 C 338.118 298.712,341.706 303.130,344.986 307.200 C 348.265 311.270,351.500 315.247,352.174 316.037 C 352.848 316.828,353.673 317.818,354.007 318.237 C 354.341 318.657,357.671 322.758,361.407 327.352 C 365.143 331.945,368.897 336.613,369.749 337.725 C 371.050 339.422,375.442 344.826,377.938 347.800 C 378.307 348.240,380.132 350.490,381.992 352.800 C 383.853 355.110,385.560 357.209,385.787 357.465 C 386.014 357.721,387.100 359.053,388.200 360.427 C 389.300 361.800,390.830 363.674,391.600 364.592 C 392.370 365.511,394.440 368.083,396.200 370.308 C 397.960 372.534,399.536 374.365,399.702 374.378 C 400.267 374.420,399.865 143.488,399.300 143.300 C 399.025 143.208,398.800 142.955,398.800 142.738 C 398.800 142.163,397.746 141.200,397.117 141.200 C 396.820 141.200,396.317 140.840,396.000 140.400 C 395.598 139.843,394.965 139.600,393.912 139.600 C 393.080 139.600,392.400 139.420,392.400 139.200 C 392.400 138.935,372.749 138.800,334.247 138.800 L 276.093 138.800 275.852 139.700 C 275.719 140.195,275.608 141.957,275.605 143.616 C 275.589 152.816,269.587 161.129,260.600 164.398 C 248.834 168.679,236.475 162.385,231.540 149.600 C 230.099 145.865,230.956 137.199,233.202 132.796 C 234.428 130.393,234.249 129.794,231.548 127.281 C 230.200 126.027,227.995 123.868,226.648 122.484 C 217.239 112.815,214.052 109.681,213.841 109.892 C 213.709 110.025,213.600 109.952,213.600 109.731 C 213.600 109.128,211.743 108.400,210.205 108.400 C 209.458 108.400,208.736 108.220,208.600 108.000 C 208.443 107.747,203.598 107.600,195.384 107.600 L 182.415 107.600 182.230 108.500 " stroke="none" fill="#6d6565" fill-rule="evenodd"></path><path id="path1" d="M68.000 75.153 C 62.339 76.369,58.518 81.550,58.871 87.533 C 59.122 91.794,59.940 92.948,69.445 102.445 C 74.150 107.147,78.000 111.166,78.000 111.378 C 78.000 111.589,73.976 115.821,69.059 120.781 C 59.229 130.697,58.800 131.333,58.800 136.000 C 58.800 142.826,63.704 147.680,70.600 147.680 C 75.572 147.680,76.189 147.270,86.097 137.379 C 90.824 132.660,94.942 128.800,95.249 128.800 C 95.556 128.800,99.586 132.599,104.204 137.243 C 113.955 147.048,114.935 147.695,120.029 147.680 C 127.728 147.657,133.144 140.944,131.421 133.560 C 130.606 130.065,129.648 128.838,121.053 120.272 C 116.818 116.052,113.116 112.283,112.825 111.896 C 112.351 111.266,113.188 110.301,120.881 102.604 C 131.244 92.236,132.636 89.906,131.561 84.721 C 130.299 78.640,125.953 75.071,119.800 75.064 C 114.975 75.058,114.071 75.667,104.204 85.572 C 99.586 90.207,95.585 94.000,95.314 94.000 C 95.042 94.000,90.901 90.130,86.110 85.401 C 75.788 75.211,73.571 73.956,68.000 75.153 M20.165 200.857 C 20.048 201.045,19.323 201.200,18.553 201.200 C 17.721 201.200,17.253 201.362,17.400 201.600 C 17.536 201.820,17.394 202.000,17.086 202.000 C 16.333 202.000,15.200 203.295,15.200 204.155 C 15.200 204.536,15.046 204.752,14.858 204.636 C 14.670 204.520,14.481 205.769,14.437 207.412 C 14.387 209.287,14.515 210.400,14.779 210.400 C 15.011 210.400,15.200 210.760,15.200 211.200 C 15.200 211.640,15.360 212.000,15.556 212.000 C 15.828 212.000,19.214 215.165,21.200 217.275 C 21.310 217.391,20.230 218.609,18.800 219.981 C 17.370 221.352,16.236 222.612,16.281 222.780 C 16.325 222.948,15.945 223.308,15.436 223.581 C 14.347 224.164,13.851 229.594,14.886 229.606 C 15.280 229.611,15.287 229.684,14.914 229.921 C 14.570 230.140,14.773 230.555,15.614 231.349 C 16.266 231.964,16.800 232.589,16.800 232.736 C 16.800 233.338,19.308 234.055,21.093 233.964 C 23.170 233.858,25.200 233.047,25.200 232.323 C 25.200 232.072,25.297 231.964,25.415 232.082 C 25.686 232.353,29.940 228.292,29.749 227.945 C 29.672 227.805,29.952 227.601,30.372 227.491 C 31.131 227.293,34.800 230.389,34.800 231.227 C 34.800 231.432,35.081 231.600,35.424 231.600 C 35.767 231.600,35.936 231.780,35.800 232.000 C 35.664 232.220,35.844 232.400,36.200 232.400 C 36.556 232.400,36.736 232.580,36.600 232.800 C 36.460 233.027,36.796 233.200,37.376 233.200 C 37.939 233.200,38.400 233.392,38.400 233.627 C 38.400 233.899,39.412 234.012,41.200 233.939 C 42.740 233.876,44.000 233.723,44.000 233.599 C 44.000 233.474,44.540 233.054,45.200 232.664 C 45.860 232.274,46.400 231.695,46.400 231.377 C 46.400 231.060,46.580 230.800,46.800 230.800 C 47.020 230.800,47.200 230.260,47.200 229.600 C 47.200 228.940,47.380 228.400,47.600 228.400 C 47.820 228.400,48.000 227.950,48.000 227.400 C 48.000 226.850,47.820 226.400,47.600 226.400 C 47.380 226.400,47.200 225.984,47.200 225.475 C 47.200 224.967,46.851 224.176,46.424 223.718 C 45.997 223.260,45.731 222.802,45.832 222.701 C 45.933 222.600,44.926 221.501,43.594 220.259 C 42.261 219.016,41.313 217.997,41.486 217.994 C 41.659 217.991,41.540 217.823,41.223 217.623 C 40.769 217.335,41.253 216.664,43.499 214.471 C 45.068 212.939,46.243 211.576,46.109 211.443 C 45.976 211.309,46.127 211.200,46.446 211.200 C 46.787 211.200,47.062 210.755,47.115 210.118 C 47.164 209.522,47.384 208.856,47.602 208.638 C 47.821 208.419,47.997 207.871,47.994 207.420 C 47.989 206.744,47.920 206.705,47.600 207.200 C 47.318 207.636,47.211 207.305,47.206 205.988 C 47.199 203.838,45.064 201.200,43.331 201.200 C 42.793 201.200,42.436 201.065,42.538 200.900 C 42.640 200.735,41.930 200.572,40.962 200.538 C 39.993 200.505,39.200 200.640,39.200 200.838 C 39.200 201.037,38.830 201.200,38.377 201.200 C 37.893 201.200,36.237 202.475,34.353 204.300 C 30.539 207.993,30.698 207.915,29.783 206.515 C 28.713 204.878,24.702 201.219,23.967 201.209 C 23.618 201.204,23.200 201.067,23.038 200.904 C 22.617 200.483,20.418 200.447,20.165 200.857 M223.351 311.375 C 219.114 313.219,219.579 314.993,226.760 324.400 C 229.532 328.030,232.604 332.080,233.587 333.400 C 234.571 334.720,235.474 335.890,235.595 336.000 C 235.716 336.110,237.425 338.337,239.394 340.950 C 241.485 343.725,243.645 346.135,244.587 346.747 L 246.200 347.795 288.123 348.090 C 335.082 348.420,332.249 348.574,333.647 345.614 C 334.535 343.734,332.029 338.760,328.401 335.200 C 328.289 335.090,326.770 333.110,325.026 330.800 C 310.955 312.164,311.740 313.103,309.113 311.763 L 307.227 310.800 265.913 310.816 C 232.006 310.829,224.376 310.929,223.351 311.375 M168.800 322.289 C 164.153 324.035,163.540 330.921,167.828 333.215 C 169.925 334.336,188.251 334.049,189.906 332.868 C 193.423 330.360,193.211 325.058,189.504 322.798 C 188.217 322.013,170.681 321.582,168.800 322.289 M160.096 342.798 C 156.233 345.153,156.233 350.847,160.096 353.202 C 162.254 354.518,200.644 354.420,202.958 353.093 C 207.058 350.743,206.876 344.656,202.647 342.649 C 200.325 341.547,161.928 341.681,160.096 342.798 " stroke="none" fill="#f0f0e0" fill-rule="evenodd"></path><path id="path2" d="M272.400 52.400 C 272.400 52.620,272.122 52.800,271.782 52.800 C 270.886 52.800,269.478 54.378,268.900 56.028 C 268.301 57.740,268.240 60.400,268.800 60.400 C 269.020 60.400,269.200 60.828,269.200 61.352 C 269.200 61.921,269.844 62.967,270.800 63.952 C 272.699 65.909,272.733 66.155,271.300 67.550 C 270.016 68.801,269.200 70.139,269.200 70.995 C 269.200 71.328,269.020 71.600,268.800 71.600 C 268.580 71.600,268.400 72.489,268.400 73.576 C 268.400 74.663,268.580 75.664,268.800 75.800 C 269.020 75.936,269.200 76.315,269.200 76.642 C 269.200 77.295,270.552 78.718,271.917 79.500 C 272.957 80.096,278.400 80.180,278.400 79.600 C 278.400 79.380,278.684 79.200,279.031 79.200 C 279.379 79.200,280.369 78.465,281.231 77.567 L 282.800 75.935 284.369 77.567 C 285.231 78.465,286.221 79.200,286.569 79.200 C 286.916 79.200,287.200 79.380,287.200 79.600 C 287.200 80.180,292.643 80.096,293.683 79.500 C 295.048 78.718,296.400 77.295,296.400 76.642 C 296.400 76.315,296.580 75.936,296.800 75.800 C 297.020 75.664,297.200 74.663,297.200 73.576 C 297.200 72.489,297.020 71.600,296.800 71.600 C 296.580 71.600,296.400 71.240,296.400 70.800 C 296.400 70.360,296.220 70.000,296.000 70.000 C 295.780 70.000,295.600 69.712,295.600 69.360 C 295.600 69.009,295.060 68.217,294.400 67.600 C 292.857 66.159,292.883 65.928,294.800 63.952 C 295.756 62.967,296.400 61.921,296.400 61.352 C 296.400 60.828,296.580 60.400,296.800 60.400 C 297.020 60.400,297.200 59.601,297.200 58.624 C 297.200 57.647,297.020 56.736,296.800 56.600 C 296.580 56.464,296.400 55.995,296.400 55.558 C 296.400 54.617,294.699 52.800,293.818 52.800 C 293.478 52.800,293.200 52.620,293.200 52.400 C 293.200 52.169,291.933 52.000,290.200 52.000 C 288.467 52.000,287.200 52.169,287.200 52.400 C 287.200 52.620,286.952 52.800,286.648 52.800 C 286.345 52.800,285.355 53.520,284.448 54.400 L 282.800 55.999 281.152 54.400 C 280.245 53.520,279.255 52.800,278.952 52.800 C 278.648 52.800,278.400 52.620,278.400 52.400 C 278.400 52.169,277.133 52.000,275.400 52.000 C 273.667 52.000,272.400 52.169,272.400 52.400 M68.800 74.381 C 68.470 74.605,67.812 74.791,67.338 74.794 C 65.104 74.810,59.200 79.754,59.200 81.609 C 59.200 82.018,59.020 82.464,58.800 82.600 C 58.577 82.738,58.400 84.604,58.400 86.824 C 58.400 89.208,58.560 90.800,58.800 90.800 C 59.020 90.800,59.200 91.072,59.200 91.405 C 59.200 92.618,60.350 93.952,68.600 102.310 C 73.220 106.990,77.065 111.011,77.145 111.246 C 77.225 111.480,74.525 114.411,71.145 117.758 C 58.676 130.109,58.400 130.509,58.400 136.238 C 58.400 138.307,58.558 140.000,58.750 140.000 C 58.942 140.000,59.203 140.516,59.329 141.146 C 60.164 145.321,67.743 149.470,72.569 148.394 C 76.498 147.518,77.846 146.491,86.695 137.645 L 95.260 129.083 104.130 137.893 C 109.197 142.925,113.600 146.966,114.400 147.316 C 125.859 152.338,136.583 140.739,130.680 129.709 C 130.299 128.998,126.164 124.574,121.491 119.877 L 112.993 111.337 121.157 103.200 C 129.365 95.017,131.600 92.378,131.600 90.866 C 131.600 90.415,131.780 89.936,132.000 89.800 C 132.547 89.462,132.506 84.698,131.944 83.319 C 130.661 80.172,130.208 79.413,128.800 78.046 C 126.333 75.653,123.084 74.300,119.800 74.300 C 115.137 74.300,113.574 75.354,103.817 85.080 L 95.238 93.631 86.718 85.116 C 78.324 76.725,76.489 75.276,73.400 74.599 C 70.944 74.060,69.383 73.986,68.800 74.381 M75.761 76.028 C 76.773 76.506,80.731 80.090,86.110 85.401 C 90.901 90.130,95.042 94.000,95.314 94.000 C 95.585 94.000,99.586 90.207,104.204 85.572 C 114.071 75.667,114.975 75.058,119.800 75.064 C 125.953 75.071,130.299 78.640,131.561 84.721 C 132.636 89.906,131.244 92.236,120.881 102.604 C 113.188 110.301,112.351 111.266,112.825 111.896 C 113.116 112.283,116.818 116.052,121.053 120.272 C 129.648 128.838,130.606 130.065,131.421 133.560 C 133.144 140.944,127.728 147.657,120.029 147.680 C 114.935 147.695,113.955 147.048,104.204 137.243 C 99.586 132.599,95.556 128.800,95.249 128.800 C 94.942 128.800,90.824 132.660,86.097 137.379 C 76.189 147.270,75.572 147.680,70.600 147.680 C 63.704 147.680,58.800 142.826,58.800 136.000 C 58.800 131.333,59.229 130.697,69.059 120.781 C 73.976 115.821,78.000 111.589,78.000 111.378 C 78.000 111.166,74.150 107.147,69.445 102.445 C 59.940 92.948,59.122 91.794,58.871 87.533 C 58.334 78.434,67.557 72.152,75.761 76.028 M7.600 255.600 C 7.600 255.820,7.004 256.000,6.275 256.000 C 5.504 256.000,4.592 256.334,4.092 256.800 C 3.620 257.240,3.055 257.600,2.837 257.600 C 0.723 257.600,-1.305 270.032,0.700 270.700 C 0.975 270.792,1.200 271.046,1.200 271.265 C 1.200 271.727,3.442 274.470,5.900 277.017 C 6.835 277.986,7.600 278.988,7.600 279.243 C 7.600 279.498,7.927 279.997,8.326 280.353 C 8.726 280.709,9.805 282.025,10.723 283.279 C 11.642 284.532,12.845 286.009,13.397 286.561 C 13.949 287.112,14.400 287.670,14.400 287.799 C 14.400 287.929,15.055 288.743,15.856 289.609 C 16.657 290.475,17.594 291.592,17.938 292.091 C 18.281 292.591,19.066 293.477,19.681 294.060 C 20.297 294.644,20.800 295.301,20.800 295.520 C 20.800 295.739,21.700 296.838,22.800 297.961 C 23.900 299.085,24.800 300.141,24.800 300.309 C 24.800 300.605,26.464 302.740,29.516 306.359 C 30.332 307.327,31.168 308.407,31.374 308.759 C 31.580 309.112,32.435 310.061,33.274 310.869 C 34.113 311.676,34.800 312.531,34.800 312.769 C 34.800 313.006,34.980 313.200,35.200 313.200 C 35.420 313.200,35.600 313.398,35.600 313.640 C 35.600 313.881,36.140 314.583,36.800 315.200 C 37.460 315.817,38.000 316.490,38.000 316.697 C 38.000 316.904,38.765 317.898,39.700 318.907 C 40.635 319.916,42.300 321.936,43.400 323.396 C 44.500 324.856,46.075 326.774,46.900 327.658 C 47.725 328.542,48.400 329.425,48.400 329.619 C 48.400 329.814,48.988 330.564,49.707 331.287 C 50.425 332.009,51.453 333.230,51.991 334.000 C 52.529 334.770,53.471 335.877,54.085 336.460 C 54.698 337.044,55.200 337.637,55.200 337.778 C 55.200 337.919,55.817 338.702,56.571 339.517 C 57.326 340.333,58.526 341.810,59.238 342.800 C 59.950 343.790,60.863 344.891,61.267 345.247 C 61.670 345.603,62.000 346.076,62.000 346.299 C 62.000 346.521,62.676 347.400,63.502 348.252 C 64.328 349.103,65.451 350.428,65.997 351.196 C 67.031 352.648,67.558 353.271,70.569 356.600 C 71.563 357.700,72.382 358.735,72.389 358.900 C 72.395 359.064,73.120 359.941,74.000 360.848 C 74.880 361.755,75.600 362.653,75.600 362.845 C 75.600 363.147,76.325 364.106,77.800 365.753 C 78.020 365.999,78.707 366.879,79.327 367.709 C 79.947 368.539,80.892 369.656,81.427 370.191 C 81.962 370.726,82.400 371.280,82.400 371.421 C 82.400 371.868,84.805 373.948,85.620 374.206 C 86.049 374.343,86.400 374.622,86.400 374.827 C 86.400 375.032,87.120 375.200,88.000 375.200 C 88.880 375.200,89.600 375.380,89.600 375.600 C 89.600 376.071,367.925 376.163,368.664 375.693 C 368.919 375.530,367.700 375.462,365.955 375.541 C 361.797 375.730,360.341 375.428,359.600 374.224 C 359.081 373.380,349.418 361.348,348.819 360.800 C 348.698 360.690,347.870 359.700,346.978 358.600 C 337.639 347.089,335.222 344.000,334.610 342.800 C 333.947 341.500,330.224 336.317,329.096 335.125 C 328.823 334.836,327.790 333.520,326.801 332.200 C 325.812 330.880,324.903 329.710,324.782 329.600 C 324.661 329.490,324.129 328.770,323.600 328.000 C 323.071 327.230,322.531 326.510,322.400 326.400 C 322.269 326.290,321.729 325.570,321.200 324.800 C 320.671 324.030,320.131 323.310,319.999 323.200 C 319.868 323.090,318.153 320.840,316.189 318.200 C 311.859 312.381,312.194 312.736,309.853 311.489 C 308.616 310.831,307.027 309.364,305.354 307.336 C 302.234 303.555,303.228 304.779,295.017 294.600 C 291.291 289.980,288.134 286.110,288.003 286.000 C 287.761 285.797,277.148 272.739,270.638 264.635 C 266.493 259.475,264.314 257.294,262.965 256.956 C 262.434 256.822,262.000 256.553,262.000 256.357 C 262.000 256.149,225.359 256.000,174.224 256.000 C 116.137 256.000,86.364 255.865,86.200 255.600 C 85.858 255.047,7.600 255.047,7.600 255.600 M309.113 311.763 C 311.740 313.103,310.955 312.164,325.026 330.800 C 326.770 333.110,328.289 335.090,328.401 335.200 C 332.029 338.760,334.535 343.734,333.647 345.614 C 332.249 348.574,335.082 348.420,288.123 348.090 L 246.200 347.795 244.587 346.747 C 243.645 346.135,241.485 343.725,239.394 340.950 C 237.425 338.337,235.716 336.110,235.595 336.000 C 235.474 335.890,234.571 334.720,233.587 333.400 C 232.604 332.080,229.532 328.030,226.760 324.400 C 220.231 315.848,219.882 315.088,221.451 312.848 C 222.907 310.770,221.544 310.832,265.913 310.816 L 307.227 310.800 309.113 311.763 M189.504 322.798 C 193.211 325.058,193.423 330.360,189.906 332.868 C 188.251 334.049,169.925 334.336,167.828 333.215 C 163.540 330.921,164.153 324.035,168.800 322.289 C 170.681 321.582,188.217 322.013,189.504 322.798 M202.647 342.649 C 206.876 344.656,207.058 350.743,202.958 353.093 C 200.644 354.420,162.254 354.518,160.096 353.202 C 156.233 350.847,156.233 345.153,160.096 342.798 C 161.928 341.681,200.325 341.547,202.647 342.649 " stroke="none" fill="#63bbfb" fill-rule="evenodd"></path><path id="path3" d="M91.200 24.400 C 91.200 24.639,89.547 24.812,87.100 24.829 C 83.406 24.856,81.569 25.040,77.800 25.765 C 77.140 25.892,76.240 26.047,75.800 26.109 C 75.360 26.172,74.773 26.365,74.495 26.538 C 74.217 26.712,73.452 26.869,72.795 26.888 C 72.138 26.906,71.600 27.074,71.600 27.261 C 71.600 27.447,71.006 27.600,70.280 27.600 C 69.554 27.600,68.785 27.775,68.571 27.989 C 68.358 28.202,67.827 28.445,67.391 28.528 C 66.304 28.736,63.842 29.665,62.305 30.447 C 61.923 30.641,61.328 30.800,60.982 30.800 C 60.636 30.800,60.464 30.980,60.600 31.200 C 60.744 31.433,60.337 31.600,59.624 31.600 C 58.951 31.600,58.400 31.780,58.400 32.000 C 58.400 32.220,58.040 32.400,57.600 32.400 C 57.160 32.400,56.800 32.580,56.800 32.800 C 56.800 33.020,56.440 33.200,56.000 33.200 C 55.560 33.200,55.200 33.380,55.200 33.600 C 55.200 33.820,54.829 34.000,54.376 34.000 C 53.923 34.000,53.664 34.180,53.800 34.400 C 53.936 34.620,53.711 34.800,53.299 34.800 C 52.888 34.800,52.164 35.160,51.692 35.600 C 51.220 36.040,50.638 36.400,50.400 36.400 C 50.162 36.400,49.606 36.736,49.166 37.146 C 48.725 37.557,47.568 38.302,46.594 38.803 C 45.620 39.304,44.906 39.848,45.008 40.013 C 45.110 40.178,44.570 40.608,43.809 40.969 C 43.048 41.330,42.245 41.935,42.025 42.313 C 41.805 42.691,41.619 42.831,41.612 42.624 C 41.605 42.416,41.345 42.596,41.032 43.024 C 40.720 43.451,40.270 43.822,40.032 43.850 C 39.795 43.877,39.420 43.923,39.200 43.950 C 38.980 43.977,38.800 44.281,38.800 44.624 C 38.800 44.967,38.665 45.177,38.500 45.092 C 38.108 44.890,28.408 54.675,28.706 54.972 C 28.831 55.098,28.629 55.200,28.257 55.200 C 27.825 55.200,27.493 55.634,27.340 56.400 C 27.198 57.111,26.849 57.600,26.483 57.600 C 26.144 57.600,25.986 57.719,26.131 57.864 C 26.276 58.009,26.036 58.380,25.597 58.687 C 25.159 58.994,24.800 59.625,24.800 60.089 C 24.800 60.554,24.689 60.822,24.552 60.686 C 24.239 60.372,23.562 61.086,22.832 62.500 C 22.520 63.105,22.115 63.600,21.932 63.600 C 21.750 63.600,21.600 63.920,21.600 64.312 C 21.600 64.703,21.240 65.283,20.800 65.600 C 20.360 65.917,20.000 66.371,20.000 66.609 C 20.000 67.275,19.037 69.193,18.700 69.197 C 18.535 69.199,18.400 69.545,18.400 69.967 C 18.400 70.388,18.265 70.793,18.100 70.867 C 17.668 71.059,16.000 74.372,16.000 75.038 C 16.000 75.347,15.820 75.600,15.600 75.600 C 15.380 75.600,15.200 75.789,15.200 76.019 C 15.200 76.250,14.840 77.184,14.400 78.094 C 13.960 79.005,13.600 80.087,13.600 80.499 C 13.600 80.910,13.420 81.136,13.200 81.000 C 12.961 80.853,12.800 81.337,12.800 82.200 C 12.800 83.063,12.639 83.547,12.400 83.400 C 12.167 83.256,12.000 83.663,12.000 84.376 C 12.000 85.049,11.812 85.600,11.582 85.600 C 11.353 85.600,11.214 85.825,11.275 86.100 C 11.425 86.782,10.354 91.285,9.898 91.882 C 9.696 92.148,9.650 92.557,9.795 92.791 C 9.940 93.026,9.770 94.087,9.417 95.149 C 9.031 96.312,8.859 97.741,8.984 98.740 C 9.110 99.740,9.030 100.400,8.784 100.400 C 8.511 100.400,8.432 104.030,8.546 111.300 C 8.771 125.577,8.766 125.485,9.422 127.749 C 9.732 128.822,9.884 129.864,9.759 130.067 C 9.634 130.269,9.721 130.664,9.954 130.944 C 10.186 131.224,10.421 132.040,10.475 132.757 C 10.530 133.474,10.715 134.148,10.887 134.254 C 11.059 134.360,11.200 134.966,11.200 135.600 C 11.200 136.234,11.380 136.864,11.600 137.000 C 11.820 137.136,12.000 137.676,12.000 138.200 C 12.000 138.724,12.180 139.264,12.400 139.400 C 12.620 139.536,12.800 140.087,12.800 140.624 C 12.800 141.161,12.980 141.600,13.200 141.600 C 13.420 141.600,13.600 141.955,13.600 142.388 C 13.600 142.821,13.960 143.817,14.400 144.600 C 14.840 145.383,15.200 146.289,15.200 146.612 C 15.200 146.935,15.380 147.200,15.600 147.200 C 15.820 147.200,16.000 147.539,16.000 147.954 C 16.000 148.803,16.983 150.884,17.256 150.611 C 17.353 150.514,17.459 150.782,17.490 151.206 C 17.522 151.631,17.920 152.377,18.374 152.865 C 18.828 153.352,19.200 154.088,19.200 154.499 C 19.200 154.911,19.380 155.136,19.600 155.000 C 19.820 154.864,20.000 155.051,20.000 155.415 C 20.000 156.086,21.510 158.489,22.086 158.733 C 22.258 158.807,22.400 159.130,22.400 159.452 C 22.400 159.773,22.849 160.486,23.398 161.035 C 23.947 161.584,24.672 162.565,25.008 163.216 C 25.345 163.867,25.807 164.400,26.034 164.400 C 26.261 164.400,26.348 164.561,26.226 164.758 C 26.104 164.955,26.274 165.219,26.602 165.346 C 26.931 165.472,27.200 165.845,27.200 166.176 C 27.200 166.507,28.633 168.199,30.385 169.937 C 32.137 171.675,33.498 173.169,33.409 173.257 C 33.321 173.346,33.913 173.864,34.724 174.409 C 35.536 174.954,36.861 176.075,37.669 176.900 C 38.476 177.725,39.319 178.400,39.542 178.400 C 39.764 178.400,40.060 178.760,40.200 179.200 C 40.340 179.640,40.710 180.000,41.023 180.000 C 41.337 180.000,42.109 180.540,42.740 181.200 C 43.371 181.860,44.052 182.400,44.255 182.400 C 44.458 182.400,44.876 182.750,45.185 183.179 C 45.493 183.607,45.869 183.881,46.021 183.787 C 46.172 183.694,46.814 184.063,47.448 184.608 C 48.082 185.153,48.825 185.599,49.100 185.600 C 49.375 185.600,49.600 185.780,49.600 186.000 C 49.600 186.220,49.878 186.400,50.217 186.400 C 50.556 186.400,51.220 186.760,51.692 187.200 C 52.164 187.640,52.787 188.000,53.075 188.000 C 53.364 188.000,53.600 188.180,53.600 188.400 C 53.600 188.620,53.960 188.800,54.400 188.800 C 54.840 188.800,55.200 188.980,55.200 189.200 C 55.200 189.420,55.560 189.600,56.000 189.600 C 56.440 189.600,56.800 189.791,56.800 190.024 C 56.800 190.257,56.988 190.331,57.218 190.189 C 57.447 190.047,57.879 190.133,58.177 190.381 C 58.475 190.628,59.090 190.902,59.544 190.989 C 60.428 191.160,63.268 192.413,63.600 192.779 C 63.710 192.901,64.250 193.062,64.800 193.138 C 65.350 193.214,65.860 193.439,65.933 193.638 C 66.007 193.837,66.592 194.000,67.233 194.000 C 67.875 194.000,68.400 194.180,68.400 194.400 C 68.400 194.620,69.120 194.800,70.000 194.800 C 70.880 194.800,71.600 194.980,71.600 195.200 C 71.600 195.420,72.140 195.600,72.800 195.600 C 73.460 195.600,74.000 195.780,74.000 196.000 C 74.000 196.220,74.720 196.400,75.600 196.400 C 76.480 196.400,77.200 196.580,77.200 196.800 C 77.200 197.020,78.160 197.200,79.333 197.200 C 80.507 197.200,81.550 197.283,81.652 197.385 C 81.753 197.487,101.358 197.622,125.218 197.685 C 174.237 197.815,169.764 198.110,171.816 194.608 C 174.139 190.646,173.370 189.218,163.952 179.997 C 160.019 176.145,156.800 172.839,156.800 172.650 C 156.800 172.461,158.031 170.932,159.537 169.253 C 162.720 165.702,168.800 157.622,168.800 156.944 C 168.800 156.823,169.167 156.208,169.615 155.579 C 171.880 152.398,176.505 141.916,178.033 136.500 C 178.235 135.785,178.594 134.525,178.830 133.700 C 179.286 132.109,179.789 129.874,180.426 126.600 C 181.599 120.573,182.814 102.338,182.060 102.087 C 181.772 101.991,181.600 100.896,181.600 99.167 C 181.600 97.589,181.428 96.400,181.200 96.400 C 180.980 96.400,180.800 95.410,180.800 94.200 C 180.800 92.990,180.620 92.000,180.400 92.000 C 180.180 92.000,180.000 91.280,180.000 90.400 C 180.000 89.520,179.820 88.800,179.600 88.800 C 179.380 88.800,179.200 88.271,179.200 87.624 C 179.200 86.977,179.020 86.336,178.800 86.200 C 178.580 86.064,178.400 85.333,178.400 84.576 C 178.400 83.819,178.220 83.200,178.000 83.200 C 177.780 83.200,177.600 82.750,177.600 82.200 C 177.600 81.650,177.420 81.200,177.200 81.200 C 176.980 81.200,176.800 80.750,176.800 80.200 C 176.800 79.650,176.620 79.200,176.400 79.200 C 176.180 79.200,176.000 78.838,176.000 78.395 C 176.000 77.952,175.832 77.277,175.626 76.895 C 174.870 75.491,174.000 73.467,174.000 73.110 C 174.000 72.908,173.728 72.471,173.396 72.139 C 173.064 71.807,172.895 71.370,173.020 71.168 C 173.145 70.965,173.057 70.800,172.824 70.800 C 172.591 70.800,172.400 70.440,172.400 70.000 C 172.400 69.560,172.220 69.200,172.000 69.200 C 171.780 69.200,171.600 68.840,171.600 68.400 C 171.600 67.960,171.420 67.600,171.200 67.600 C 170.980 67.600,170.800 67.364,170.800 67.075 C 170.800 66.787,170.440 66.164,170.000 65.692 C 169.560 65.220,169.200 64.596,169.200 64.305 C 169.200 64.014,168.840 63.517,168.400 63.200 C 167.960 62.883,167.600 62.343,167.600 62.000 C 167.600 61.657,167.240 61.117,166.800 60.800 C 166.360 60.483,166.000 60.065,166.000 59.872 C 166.000 59.679,165.460 59.017,164.800 58.400 C 164.140 57.783,163.600 57.087,163.600 56.853 C 163.600 56.160,152.178 44.337,150.791 43.595 C 150.274 43.318,149.659 42.933,149.425 42.738 C 147.088 40.793,146.544 40.401,146.188 40.400 C 145.962 40.400,145.517 40.040,145.200 39.600 C 144.883 39.160,144.369 38.800,144.059 38.800 C 143.748 38.800,143.203 38.471,142.847 38.070 C 142.491 37.668,141.615 37.084,140.900 36.772 C 140.185 36.460,139.600 36.069,139.600 35.902 C 139.600 35.736,139.330 35.600,139.000 35.600 C 138.670 35.600,138.400 35.420,138.400 35.200 C 138.400 34.980,138.130 34.800,137.800 34.800 C 137.470 34.800,137.200 34.620,137.200 34.400 C 137.200 34.180,136.840 34.000,136.400 34.000 C 135.960 34.000,135.600 33.820,135.600 33.600 C 135.600 33.380,135.240 33.200,134.800 33.200 C 134.360 33.200,134.000 33.020,134.000 32.800 C 134.000 32.580,133.640 32.400,133.200 32.400 C 132.760 32.400,132.400 32.220,132.400 32.000 C 132.400 31.780,131.961 31.600,131.424 31.600 C 130.887 31.600,130.336 31.420,130.200 31.200 C 130.064 30.980,129.603 30.800,129.176 30.800 C 128.749 30.800,128.400 30.664,128.400 30.497 C 128.400 30.161,125.571 29.200,124.583 29.200 C 124.236 29.200,124.064 29.020,124.200 28.800 C 124.344 28.567,123.945 28.400,123.247 28.400 C 122.587 28.400,121.936 28.220,121.800 28.000 C 121.664 27.780,121.023 27.600,120.376 27.600 C 119.729 27.600,119.200 27.458,119.200 27.285 C 119.200 27.112,118.627 26.927,117.927 26.873 C 117.226 26.820,116.461 26.625,116.227 26.440 C 115.992 26.256,114.900 25.979,113.800 25.826 C 112.700 25.673,110.810 25.395,109.600 25.208 C 108.390 25.021,105.555 24.852,103.300 24.834 C 100.856 24.814,99.200 24.638,99.200 24.400 C 99.200 24.160,97.600 24.000,95.200 24.000 C 92.800 24.000,91.200 24.160,91.200 24.400 M73.400 74.599 C 76.489 75.276,78.324 76.725,86.718 85.116 L 95.238 93.631 103.817 85.080 C 113.574 75.354,115.137 74.300,119.800 74.300 C 123.084 74.300,126.333 75.653,128.800 78.046 C 130.208 79.413,130.661 80.172,131.944 83.319 C 132.506 84.698,132.547 89.462,132.000 89.800 C 131.780 89.936,131.600 90.415,131.600 90.866 C 131.600 92.378,129.365 95.017,121.157 103.200 L 112.993 111.337 121.491 119.877 C 126.164 124.574,130.299 128.998,130.680 129.709 C 136.583 140.739,125.859 152.338,114.400 147.316 C 113.600 146.966,109.197 142.925,104.130 137.893 L 95.260 129.083 86.695 137.645 C 77.846 146.491,76.498 147.518,72.569 148.394 C 67.743 149.470,60.164 145.321,59.329 141.146 C 59.203 140.516,58.942 140.000,58.750 140.000 C 58.558 140.000,58.400 138.307,58.400 136.238 C 58.400 130.509,58.676 130.109,71.145 117.758 C 74.525 114.411,77.225 111.480,77.145 111.246 C 77.065 111.011,73.220 106.990,68.600 102.310 C 60.350 93.952,59.200 92.618,59.200 91.405 C 59.200 91.072,59.020 90.800,58.800 90.800 C 58.560 90.800,58.400 89.208,58.400 86.824 C 58.400 84.604,58.577 82.738,58.800 82.600 C 59.020 82.464,59.200 82.018,59.200 81.609 C 59.200 79.754,65.104 74.810,67.338 74.794 C 67.812 74.791,68.470 74.605,68.800 74.381 C 69.383 73.986,70.944 74.060,73.400 74.599 M262.000 256.339 C 262.000 256.545,262.434 256.822,262.965 256.956 C 264.314 257.294,266.493 259.475,270.638 264.635 C 277.148 272.739,287.761 285.797,288.003 286.000 C 288.134 286.110,291.291 289.980,295.017 294.600 C 303.228 304.779,302.234 303.555,305.354 307.336 C 307.027 309.364,308.616 310.831,309.853 311.489 C 312.194 312.736,311.859 312.381,316.189 318.200 C 318.153 320.840,319.868 323.090,319.999 323.200 C 320.131 323.310,320.671 324.030,321.200 324.800 C 321.729 325.570,322.269 326.290,322.400 326.400 C 322.531 326.510,323.071 327.230,323.600 328.000 C 324.129 328.770,324.661 329.490,324.782 329.600 C 324.903 329.710,325.812 330.880,326.801 332.200 C 327.790 333.520,328.823 334.836,329.096 335.125 C 330.224 336.317,333.947 341.500,334.610 342.800 C 335.222 344.000,337.639 347.089,346.978 358.600 C 347.870 359.700,348.698 360.690,348.819 360.800 C 349.418 361.348,359.081 373.380,359.600 374.224 C 360.341 375.428,361.797 375.730,365.955 375.541 C 367.700 375.462,368.919 375.530,368.664 375.693 C 368.409 375.855,375.355 375.991,384.100 375.994 C 399.505 376.000,400.000 375.976,400.000 375.233 C 400.000 374.812,399.856 374.407,399.681 374.333 C 399.410 374.220,393.168 366.668,390.023 362.649 C 389.485 361.962,388.495 360.753,387.823 359.963 C 387.150 359.172,386.328 358.182,385.995 357.763 C 384.797 356.252,378.594 348.582,377.938 347.800 C 375.442 344.826,371.050 339.422,369.749 337.725 C 368.897 336.613,365.143 331.945,361.407 327.352 C 357.671 322.758,354.341 318.657,354.007 318.237 C 353.673 317.818,352.848 316.828,352.174 316.037 C 351.500 315.247,348.265 311.270,344.986 307.200 C 341.706 303.130,338.118 298.712,337.011 297.383 C 335.905 296.054,333.650 293.288,332.000 291.237 C 330.350 289.185,328.370 286.746,327.600 285.815 C 326.830 284.884,325.210 282.899,324.000 281.403 C 322.790 279.907,320.360 276.924,318.600 274.773 C 316.840 272.623,313.690 268.747,311.600 266.160 C 302.686 255.125,305.956 256.227,281.700 256.082 C 269.653 256.010,262.000 256.110,262.000 256.339 " stroke="none" fill="#2fa0fb" fill-rule="evenodd"></path><path id="path4" d="M327.000 80.400 C 326.864 80.620,326.313 80.800,325.776 80.800 C 325.239 80.800,324.800 80.980,324.800 81.200 C 324.800 81.420,324.440 81.600,324.000 81.600 C 323.560 81.600,323.200 81.780,323.200 82.000 C 323.200 82.220,322.964 82.400,322.675 82.400 C 322.387 82.400,321.764 82.760,321.292 83.200 C 320.820 83.640,320.322 84.000,320.186 84.000 C 319.842 84.000,317.600 86.274,317.600 86.622 C 317.600 86.778,317.285 87.199,316.900 87.557 C 315.999 88.396,315.200 89.823,315.200 90.595 C 315.200 90.928,315.020 91.200,314.800 91.200 C 314.580 91.200,314.400 91.650,314.400 92.200 C 314.400 92.750,314.212 93.200,313.983 93.200 C 313.711 93.200,313.586 95.081,313.623 98.600 C 313.655 101.570,313.843 104.000,314.040 104.000 C 314.238 104.000,314.400 104.450,314.400 105.000 C 314.400 105.550,314.580 106.000,314.800 106.000 C 315.020 106.000,315.200 106.317,315.200 106.704 C 315.200 107.092,315.818 108.124,316.573 108.998 C 317.329 109.872,317.877 110.656,317.792 110.741 C 317.553 110.981,318.688 112.000,319.195 112.000 C 319.444 112.000,319.519 112.208,319.362 112.462 C 319.191 112.738,319.251 112.815,319.512 112.654 C 319.752 112.506,320.402 112.838,320.956 113.392 C 321.510 113.947,322.242 114.400,322.582 114.400 C 322.922 114.400,323.200 114.580,323.200 114.800 C 323.200 115.020,323.560 115.200,324.000 115.200 C 324.440 115.200,324.800 115.380,324.800 115.600 C 324.800 115.820,325.340 116.000,326.000 116.000 C 326.660 116.000,327.200 116.180,327.200 116.400 C 327.200 116.644,329.059 116.800,331.976 116.800 C 334.729 116.800,336.858 116.631,337.000 116.400 C 337.136 116.180,337.561 116.000,337.944 116.000 C 338.819 116.000,340.793 115.101,340.797 114.700 C 340.799 114.535,341.171 114.400,341.624 114.400 C 342.077 114.400,342.336 114.220,342.200 114.000 C 342.064 113.780,342.147 113.600,342.385 113.600 C 343.000 113.600,347.200 109.323,347.200 108.697 C 347.200 108.411,347.560 107.917,348.000 107.600 C 348.440 107.283,348.800 106.613,348.800 106.112 C 348.800 105.610,348.980 105.200,349.200 105.200 C 349.420 105.200,349.600 104.570,349.600 103.800 C 349.600 103.030,349.780 102.400,350.000 102.400 C 350.240 102.400,350.400 100.800,350.400 98.400 C 350.400 96.000,350.240 94.400,350.000 94.400 C 349.780 94.400,349.600 93.860,349.600 93.200 C 349.600 92.540,349.420 92.000,349.200 92.000 C 348.980 92.000,348.800 91.584,348.800 91.075 C 348.800 90.567,348.440 89.764,348.000 89.292 C 347.560 88.820,347.200 88.242,347.200 88.008 C 347.200 86.782,340.855 81.600,339.354 81.600 C 339.023 81.600,338.864 81.420,339.000 81.200 C 339.147 80.962,338.671 80.800,337.824 80.800 C 337.041 80.800,336.400 80.620,336.400 80.400 C 336.400 80.157,334.608 80.000,331.824 80.000 C 329.204 80.000,327.142 80.171,327.000 80.400 M248.200 120.400 C 248.064 120.620,247.434 120.800,246.800 120.800 C 246.166 120.800,245.536 120.980,245.400 121.200 C 245.264 121.420,244.713 121.600,244.176 121.600 C 243.639 121.600,243.200 121.780,243.200 122.000 C 243.200 122.220,242.930 122.400,242.600 122.400 C 242.270 122.400,242.000 122.580,242.000 122.800 C 242.000 123.020,241.764 123.200,241.475 123.200 C 241.187 123.200,240.564 123.560,240.092 124.000 C 239.620 124.440,238.945 124.800,238.593 124.800 C 238.241 124.800,238.064 124.980,238.200 125.200 C 238.336 125.420,238.292 125.600,238.102 125.600 C 237.573 125.600,234.800 128.248,234.800 128.754 C 234.800 128.999,234.620 129.200,234.400 129.200 C 234.180 129.200,234.000 129.657,234.000 130.216 C 234.000 130.775,233.641 131.936,233.202 132.796 C 230.956 137.199,230.099 145.865,231.540 149.600 C 236.504 162.460,249.283 168.876,260.800 164.291 C 270.590 160.394,275.206 153.481,275.750 141.900 C 275.886 139.000,275.823 137.200,275.585 137.200 C 275.373 137.200,275.200 136.754,275.200 136.208 C 275.200 135.251,274.093 132.009,273.627 131.600 C 273.501 131.490,273.129 130.867,272.799 130.215 C 271.971 128.576,268.338 124.800,267.590 124.800 C 267.253 124.800,266.717 124.440,266.400 124.000 C 266.083 123.560,265.503 123.200,265.112 123.200 C 264.720 123.200,264.400 123.020,264.400 122.800 C 264.400 122.580,264.040 122.400,263.600 122.400 C 263.160 122.400,262.800 122.220,262.800 122.000 C 262.800 121.780,262.440 121.600,262.000 121.600 C 261.560 121.600,261.200 121.420,261.200 121.200 C 261.200 120.980,260.480 120.800,259.600 120.800 C 258.720 120.800,258.000 120.620,258.000 120.400 C 258.000 120.156,256.141 120.000,253.224 120.000 C 250.471 120.000,248.342 120.169,248.200 120.400 " stroke="none" fill="#9cd43d" fill-rule="evenodd"></path></g></svg>